:SAMPLES-PER-SECOND 24
:FULLY-SPECIFIED
:DEGREES
33
root  -2.34933 35.8674 17.133 171.22 -11.21 177.694
RightUpLeg  26.519 -18.827 -16.1255
RightLeg  49.0202 -1.80278 -2.23893
RightFoot  -0.162788 -0.9541 9.819
RightToes  -1.74623e-010 0 -2.59999e-017
Spine  -8.02237 11.0285 10.3938
Spine1  13.1768 15.2149 -16.9096
HEad  14.2023 -27.7559 1.86728
LeftShoulder1  1.19207 -1.7211 -16.0119
LeftArm  -6.79008 25.9758 -6.12171
LeftForeArm  26.8342 -56.4881 -14.6971
LeftHand  -0.503243 2.58865 20.7093
RightShoulder  0.524844 -0.0404008 7.53419
RightArm  -62.7108 52.1009 -1.15376
RightForeArm  24.2697 72.8762 37.9875
RightHand  -2.0343 0.898394 -36.5143
LeftUpLeg  -28.6533 19.7131 -14.2847
LeftLeg  27.3903 4.20813 2.71751
LeftFoot  3.42266 -0.763752 5.73106
LeftToes  -6.27559e-011 -2.10356e-011 8.24929e-012
34
root  -2.50398 35.9932 14.966 164.755 -19.7207 -178.034
RightUpLeg  18.7348 -23.8352 -14.5117
RightLeg  63.7466 0.0143605 -0.594298
RightFoot  -3.19047 -0.259838 2.64415
RightToes  -1.74623e-010 0 -2.59999e-017
Spine  -8.14698 8.6591 6.88257
Spine1  14.7283 12.2882 -15.4497
HEad  19.7141 -31.7474 3.72773
LeftShoulder1  0.782546 -1.03334 -9.87682
LeftArm  -11.7499 10.9666 -1.32074
LeftForeArm  27.4534 -54.4134 -13.4537
LeftHand  -0.543858 2.2773 20.1426
RightShoulder  0.17488 -1.94474 3.47475
RightArm  -68.5646 39.1365 -13.7866
RightForeArm  26.2662 73.8937 41.1355
RightHand  -2.78547 3.38764 -35.9787
LeftUpLeg  -21.6484 17.8846 -9.36619
LeftLeg  33.2317 0.753132 0.890808
LeftFoot  3.05945 -1.2744 9.93811
LeftToes  -6.27559e-011 -2.10356e-011 8.24929e-012
35
root  -2.62933 37.027 13.3013 155.928 -25.3191 -170.546
RightUpLeg  5.93097 -25.3237 -9.82598
RightLeg  59.0695 -1.96095 -4.01224
RightFoot  -11.1163 -0.0885012 6.5856
RightToes  -1.74623e-010 0 -2.59999e-017
Spine  -6.06513 4.69701 3.54375
Spine1  14.3024 7.35707 -10.9189
HEad  24.6049 -31.7542 4.24443
LeftShoulder1  0.640037 -1.07161 -6.26949
LeftArm  -16.7527 -6.82938 -1.964
LeftForeArm  26.5229 -51.511 -12.0342
LeftHand  -0.505125 2.35941 19.1923
RightShoulder  0.322005 -1.11367 5.76557
RightArm  -59.3112 22.7783 -11.8919
RightForeArm  47.5723 77.9745 64.266
RightHand  -2.54834 3.04183 -34.3351
LeftUpLeg  -11.4422 12.6943 -1.42344
LeftLeg  32.1849 -0.414187 0.0869101
LeftFoot  3.08662 -1.6372 12.7288
LeftToes  -6.27559e-011 -2.10356e-011 8.24929e-012
36
root  -2.51253 38.2805 12.4736 146.712 -28.7449 -160.908
RightUpLeg  -7.6367 -25.1617 -5.82561
RightLeg  38.0743 -6.16342 -5.98415
RightFoot  -13.9658 0.0576363 7.10129
RightToes  -1.74623e-010 0 -2.59999e-017
Spine  -1.7951 0.357132 -1.52315
Spine1  14.7432 0.417253 -0.808446
HEad  26.2182 -29.2327 4.34845
LeftShoulder1  0.804266 -2.11358 -6.59986
LeftArm  -18.6497 -26.0472 -6.72258
LeftForeArm  26.2305 -49.404 -11.0999
LeftHand  -0.641223 1.49874 19.0496
RightShoulder  0.988394 1.44224 12.8631
RightArm  -50.1353 8.13115 -4.83985
RightForeArm  78.7149 79.0031 98.2987
RightHand  -2.0331 1.07128 -35.6395
LeftUpLeg  -3.0976 8.11787 7.01389
LeftLeg  26.8713 -1.42326 -0.414175
LeftFoot  4.99715 -1.99659 13.6126
LeftToes  -6.27559e-011 -2.10356e-011 8.24929e-012
37
root  -2.19119 38.9513 12.3988 137.886 -30.6923 -150.66
RightUpLeg  -18.7162 -19.2568 -10.5906
RightLeg  13.586 -11.429 -0.164405
RightFoot  -15.598 0.140975 6.58506
RightToes  -1.74623e-010 0 -2.59999e-017
Spine  5.52787 -2.87154 -5.11722
Spine1  16.4582 -7.06035 11.8892
HEad  23.9036 -24.9291 4.23414
LeftShoulder1  1.236 -3.99953 -9.01847
LeftArm  -15.2559 -46.0056 -14.1107
LeftForeArm  26.1825 -48.4363 -10.6905
LeftHand  -0.969799 -0.223585 20.0511
RightShoulder  2.34063 4.2623 23.827
RightArm  -45.3517 4.74287 0.160483
RightForeArm  55.6515 78.6027 76.5101
RightHand  -1.82321 0.491168 -35.1282
LeftUpLeg  0.320978 7.73213 15.0982
LeftLeg  23.9143 -3.54605 -1.42103
LeftFoot  7.10332 -2.61339 15.6993
LeftToes  -6.27559e-011 -2.10356e-011 8.24929e-012
38
root  -1.78399 38.7326 12.3093 129.791 -30.0837 -142.997
RightUpLeg  -31.0263 -17.2303 -22.0576
RightLeg  3.04495 -15.9042 2.67156
RightFoot  -15.5347 0.297314 11.0069
RightToes  -1.74623e-010 0 -2.59999e-017
Spine  15.449 -4.05923 -4.74986
Spine1  17.2115 -11.8682 20.8954
HEad  18.7208 -20.0903 3.94949
LeftShoulder1  1.52638 -5.8091 -8.99246
LeftArm  -9.33552 -62.4803 -25.4532
LeftForeArm  27.2299 -49.7977 -11.1951
LeftHand  -1.1947 -0.870456 22.1233
RightShoulder  3.34397 5.70154 30.4815
RightArm  -44.3997 15.4977 1.41771
RightForeArm  13.9757 70.0685 33.313
RightHand  -2.06176 1.98401 -31.938
LeftUpLeg  0.497746 10.079 21.9037
LeftLeg  27.5014 -0.953909 -0.187093
LeftFoot  4.83615 -2.65951 18.3729
LeftToes  -6.27559e-011 -2.10356e-011 8.24929e-012
39
root  -1.45264 38.1136 11.561 122.177 -28.137 -136.428
RightUpLeg  -48.1596 -30.4389 -26.1974
RightLeg  7.8517 -13.8918 0.673972
RightFoot  -15.1726 0.109792 6.35572
RightToes  -1.74623e-010 0 -2.59999e-017
Spine  22.9556 -4.90261 -1.38425
Spine1  18.7486 -14.737 26.2963
HEad  14.0155 -16.7435 3.57286
LeftShoulder1  1.34339 -6.34566 -5.89051
LeftArm  0.169141 -74.3068 -44.9745
LeftForeArm  29.1572 -51.8822 -11.9958
LeftHand  -1.29225 -0.653165 24.7096
RightShoulder  2.77994 5.18017 25.9833
RightArm  -48.9984 28.4875 0.46944
RightForeArm  4.06495 61.0747 20.6002
RightHand  -2.45023 3.51138 -31.4484
LeftUpLeg  0.679063 11.0838 29.2403
LeftLeg  32.5101 3.42035 2.70084
LeftFoot  -2.44703 -1.47529 18.9719
LeftToes  -6.27559e-011 -2.10356e-011 8.24929e-012
40
root  -1.21701 37.4405 10.2288 115.705 -26.7698 -131.312
RightUpLeg  -71.5333 -44.2433 -21.8631
RightLeg  14.7937 -7.01002 -0.66708
RightFoot  -10.8887 -0.0928585 1.75305
RightToes  -1.74623e-010 0 -2.59999e-017
Spine  26.4129 -4.89405 2.81057
Spine1  21.6008 -16.1869 28.285
HEad  13.2543 -16.3939 4.5191
LeftShoulder1  1.05943 -5.726 -3.45575
LeftArm  35.2678 -78.9653 -90.3115
LeftForeArm  30.1062 -54.7738 -13.4155
LeftHand  -1.21509 0.170923 26.8174
RightShoulder  1.85612 3.68588 19.4652
RightArm  -62.952 30.0153 -8.05641
RightForeArm  9.66567 64.759 24.2176
RightHand  -2.64348 3.48649 -33.9034
LeftUpLeg  1.07751 8.56842 35.5957
LeftLeg  37.2469 4.89181 4.35335
LeftFoot  -10.6238 -0.0528292 17.7313
LeftToes  -6.27559e-011 -2.10356e-011 8.24929e-012
41
root  -0.986948 36.904 8.52811 110.654 -25.8622 -129.223
RightUpLeg  -88.3684 -50.0704 -23.8431
RightLeg  15.5138 -11.1024 0.723423
RightFoot  -6.79028 -0.285035 5.89156
RightToes  -1.74623e-010 0 -2.59999e-017
Spine  29.1017 -4.30212 8.47579
Spine1  22.6595 -14.0756 25.1963
HEad  15.3223 -17.0208 7.14808
LeftShoulder1  1.05916 -5.44481 -3.85159
LeftArm  54.2924 -73.6741 -114.737
LeftForeArm  33.1426 -60.9415 -17.3567
LeftHand  -1.07717 0.980769 28.0717
RightShoulder  1.49338 2.59424 18.0121
RightArm  -79.1836 18.9362 -20.0147
RightForeArm  34.2744 75.9765 51.8726
RightHand  -2.45736 1.70069 -39.0615
LeftUpLeg  1.90647 3.18613 39.4616
LeftLeg  42.9698 6.19024 6.58855
LeftFoot  -15.7318 0.666329 14.818
LeftToes  -6.27559e-011 -2.10356e-011 8.24929e-012
42
root  -0.739705 36.7561 7.16794 107.391 -25.8373 -128.558
RightUpLeg  -95.0105 -51.9064 -26.5025
RightLeg  11.5116 -17.5601 1.2504
RightFoot  0.607513 -1.09223 10.5602
RightToes  -1.74623e-010 0 -2.59999e-017
Spine  32.228 -4.6694 12.3141
Spine1  21.124 -11.5814 21.5311
HEad  17.743 -15.7707 8.51188
LeftShoulder1  1.46865 -5.47611 -8.92208
LeftArm  45.601 -66.8794 -104.098
LeftForeArm  40.247 -67.4482 -23.345
LeftHand  -0.96357 1.51941 28.6082
RightShoulder  1.25154 1.85183 16.7708
RightArm  -87.1833 6.88118 -22.5609
RightForeArm  102.143 76.5218 124.038
RightHand  -2.72404 1.11057 -46.2432
LeftUpLeg  3.11842 -2.86983 39.611
LeftLeg  46.1541 9.65379 11.0548
LeftFoot  -16.9313 0.73831 12.9674
LeftToes  -6.27559e-011 -2.10356e-011 8.24929e-012
43
root  -0.689201 36.7105 6.70212 106.4 -26.8508 -127.71
RightUpLeg  -90.6677 -51.9512 -28.7105
RightLeg  12.5624 -12.301 1.52006
RightFoot  14.0035 -3.16453 14.4413
RightToes  -1.74623e-010 0 -2.59999e-017
Spine  31.6546 -4.69869 10.8601
Spine1  21.3164 -12.0093 21.2212
HEad  19.9874 -14.9312 9.4592
LeftShoulder1  1.94534 -5.10048 -15.8447
LeftArm  31.7477 -62.3686 -83.9484
LeftForeArm  44.6441 -69.9065 -26.4755
LeftHand  -0.737062 2.3176 27.5742
RightShoulder  1.50535 2.51099 18.5675
RightArm  -80.7316 0.655968 -17.9633
RightForeArm  128.947 67.3587 151.754
RightHand  -2.6068 0.655012 -47.5635
LeftUpLeg  3.62925 -7.5049 36.8977
LeftLeg  46.6163 13.621 15.3796
LeftFoot  -17.9729 0.956826 14.5567
LeftToes  -6.27559e-011 -2.10356e-011 8.24929e-012
44
root  -0.969459 37.1967 6.63658 107.107 -28.0827 -126.431
RightUpLeg  -71.3131 -49.6293 -35.5231
RightLeg  9.95842 -2.87453 2.66929
RightFoot  29.4298 -7.06181 19.4651
RightToes  -1.74623e-010 0 -2.59999e-017
Spine  24.9738 -3.95913 5.41403
Spine1  24.8137 -13.7531 22.6105
HEad  21.6149 -17.0205 11.988
LeftShoulder1  2.15199 -4.85771 -19.2287
LeftArm  22.8157 -53.8446 -70.1485
LeftForeArm  47.1301 -71.5178 -29.2824
LeftHand  -0.538771 2.73332 23.3249
RightShoulder  2.79299 4.73957 27.8673
RightArm  -61.8569 -3.63155 -12.5704
RightForeArm  134.888 62.5235 157.661
RightHand  -1.8789 -0.288749 -41.2042
LeftUpLeg  4.16959 -8.10697 36.0174
LeftLeg  42.6959 14.4727 14.3001
LeftFoot  -17.8199 1.01367 15.8906
LeftToes  -6.27559e-011 -2.10356e-011 8.24929e-012
45
root  -1.34989 37.9957 6.53859 107.221 -29.3415 -125.342
RightUpLeg  -45.1643 -40.7556 -42.0412
RightLeg  2.86438 -2.39289 1.59104
RightFoot  37.6793 -9.72632 21.7895
RightToes  -1.74623e-010 0 -2.59999e-017
Spine  18.2467 -3.41294 -1.98195
Spine1  26.8323 -15.5014 24.7495
HEad  23.2733 -19.4632 13.5308
LeftShoulder1  2.19365 -4.81153 -19.9243
LeftArm  18.6631 -41.4964 -62.6695
LeftForeArm  58.6672 -75.8379 -40.4423
LeftHand  -0.468467 2.52507 18.861
RightShoulder  4.09209 6.22385 36.2103
RightArm  -41.7601 -13.0327 -2.15078
RightForeArm  132.677 62.0553 157.827
RightHand  -1.18811 -1.40341 -33.8222
LeftUpLeg  5.4748 -4.2547 37.9249
LeftLeg  36.9581 10.5975 8.85059
LeftFoot  -15.5409 0.618662 14.1182
LeftToes  -6.27559e-011 -2.10356e-011 8.24929e-012
46
root  -1.77189 38.7483 6.10742 106.505 -30.2826 -124.489
RightUpLeg  -25.4631 -29.6668 -39.4655
RightLeg  1.23343 -3.73527 2.00762
RightFoot  38.9777 -10.5535 22.8655
RightToes  -1.74623e-010 0 -2.59999e-017
Spine  14.0816 -3.79878 -8.82558
Spine1  25.2538 -16.7454 26.7462
HEad  26.3173 -19.782 12.6305
LeftShoulder1  2.182 -4.53407 -20.7459
LeftArm  16.8593 -28.2365 -56.7623
LeftForeArm  86.364 -79.9748 -66.3472
LeftHand  -0.401175 2.59821 16.5355
RightShoulder  4.27352 6.37039 37.3405
RightArm  -29.0824 -27.0748 11.7753
RightForeArm  130.109 63.6252 156.123
RightHand  -0.573112 -3.11409 -28.7219
LeftUpLeg  8.36165 -1.96259 39.6665
LeftLeg  31.2604 7.67878 5.37425
LeftFoot  -13.2653 0.284613 12.1028
LeftToes  -6.27559e-011 -2.10356e-011 8.24929e-012
